<svg xmlns="http://www.w3.org/2000/svg" version="1.1" xmlns:xlink="http://www.w3.org/1999/xlink" xmlns:svgjs="http://svgjs.dev/svgjs" width="1000" height="1000" viewBox="0 0 1000 1000"><rect width="1000" height="1000" fill="#000000"></rect><g transform="matrix(0.7,0,0,0.7,149.57577417018206,400.1504005349328)"><svg viewBox="0 0 396 113" data-background-color="#ffffff" preserveAspectRatio="xMidYMid meet" height="285" width="1000" xmlns="http://www.w3.org/2000/svg" xmlns:xlink="http://www.w3.org/1999/xlink"><g id="tight-bounds" transform="matrix(1,0,0,1,0.23999061229699237,0.056414734599457006)"><svg viewBox="0 0 395.52 112.88717053080111" height="112.88717053080111" width="395.52"><g><svg viewBox="0 0 639.6309038110396 182.55997905361872" height="112.88717053080111" width="395.52"><g><rect width="5.672396355839999" height="182.55997905361872" x="223.58930233519956" y="0" fill="#ffffff" opacity="1" stroke-width="0" stroke="transparent" fill-opacity="1" class="rect-o-0" data-fill-palette-color="primary" rx="1%" id="o-0" data-palette-color="#000000"></rect></g><g transform="matrix(1,0,0,1,244.11090381103955,0.4541293011283898)"><svg viewBox="0 0 395.52 181.65172045136194" height="181.65172045136194" width="395.52"><g id="textblocktransform"><svg viewBox="0 0 395.52 181.65172045136194" height="181.65172045136194" width="395.52" id="textblock"><g><svg viewBox="0 0 395.52 136.15413612565445" height="136.15413612565445" width="395.52"><g transform="matrix(1,0,0,1,0,0)"><svg width="395.52" viewBox="1.5000007152557373 -36.000003814697266 229.19998168945312 75.45001220703125" height="136.15413612565445" data-palette-color="#000000"><svg></svg><svg></svg><g class="wordmark-text-0" data-fill-palette-color="primary" id="text-0"><path xmlns="http://www.w3.org/2000/svg" d="M27.05-0.38c-1.333 0.32-2.69 0.54-4.07 0.66-1.387 0.113-2.737 0.17-4.05 0.17-1.32 0-2.337-0.033-3.05-0.1-0.72-0.067-1.663-0.233-2.83-0.5-1.167-0.267-2.233-0.633-3.2-1.1-0.967-0.467-1.99-1.15-3.07-2.05-1.087-0.9-1.997-1.967-2.73-3.2v0c-1.7-2.867-2.55-6.567-2.55-11.1v0c0-3.033 0.477-5.717 1.43-8.05 0.947-2.333 2.097-4.133 3.45-5.4 1.347-1.267 2.887-2.283 4.62-3.05v0c2.8-1.267 5.617-1.9 8.45-1.9v0c4.067 0 6.983 0.333 8.75 1v0c0.8 0.3 1.517 0.767 2.15 1.4 0.633 0.633 0.95 1.55 0.95 2.75 0 1.2-0.29 2.717-0.87 4.55-0.587 1.833-1.43 2.75-2.53 2.75v0c-0.333 0-1.567-0.267-3.7-0.8-2.133-0.533-3.583-0.8-4.35-0.8v0c-1.167 0-2.157 0.65-2.97 1.95-0.82 1.3-1.23 3.15-1.23 5.55 0 2.4 0.36 4.267 1.08 5.6 0.713 1.333 1.653 2 2.82 2v0c0.833 0 2.343-0.343 4.53-1.03 2.18-0.68 3.453-1.02 3.82-1.02v0c1.033 0 1.843 0.95 2.43 2.85 0.58 1.9 0.87 3.433 0.87 4.6 0 1.167-0.357 2.09-1.07 2.77-0.72 0.687-1.747 1.187-3.08 1.5zM51.7 0.45v0c-2.767 0-5.14-0.26-7.12-0.78-1.987-0.513-3.813-1.437-5.48-2.77v0c-3.367-2.633-5.05-7.683-5.05-15.15v0c0-3.133 0.46-5.867 1.38-8.2 0.913-2.333 2.187-4.183 3.82-5.55v0c3.2-2.667 7.35-4 12.45-4v0c2.633 0 4.927 0.233 6.88 0.7 1.947 0.467 3.787 1.317 5.52 2.55v0c3.5 2.533 5.25 7.367 5.25 14.5v0c0 6.4-1.583 11.117-4.75 14.15-3.167 3.033-7.467 4.55-12.9 4.55zM50.05-8.13c0.4 0.487 0.95 0.73 1.65 0.73 0.7 0 1.25-0.243 1.65-0.73 0.4-0.48 0.733-1.513 1-3.1 0.267-1.58 0.4-3.787 0.4-6.62 0-2.833-0.133-5.017-0.4-6.55-0.267-1.533-0.6-2.533-1-3-0.4-0.467-0.95-0.7-1.65-0.7-0.7 0-1.25 0.233-1.65 0.7-0.4 0.467-0.733 1.467-1 3-0.267 1.533-0.4 3.717-0.4 6.55 0 2.833 0.133 5.04 0.4 6.62 0.267 1.587 0.6 2.62 1 3.1zM89.5 0.45v0c-2.767 0-5.14-0.26-7.12-0.78-1.987-0.513-3.813-1.437-5.48-2.77v0c-3.367-2.633-5.05-7.683-5.05-15.15v0c0-3.133 0.46-5.867 1.38-8.2 0.913-2.333 2.187-4.183 3.82-5.55v0c3.2-2.667 7.35-4 12.45-4v0c2.633 0 4.927 0.233 6.88 0.7 1.947 0.467 3.787 1.317 5.52 2.55v0c3.5 2.533 5.25 7.367 5.25 14.5v0c0 6.4-1.583 11.117-4.75 14.15-3.167 3.033-7.467 4.55-12.9 4.55zM87.85-8.13c0.4 0.487 0.95 0.73 1.65 0.73 0.7 0 1.25-0.243 1.65-0.73 0.4-0.48 0.733-1.513 1-3.1 0.267-1.58 0.4-3.787 0.4-6.62 0-2.833-0.133-5.017-0.4-6.55-0.267-1.533-0.6-2.533-1-3-0.4-0.467-0.95-0.7-1.65-0.7-0.7 0-1.25 0.233-1.65 0.7-0.4 0.467-0.733 1.467-1 3-0.267 1.533-0.4 3.717-0.4 6.55 0 2.833 0.133 5.04 0.4 6.62 0.267 1.587 0.6 2.62 1 3.1zM124.35-1.55c0 0.433-1.023 0.783-3.07 1.05-2.053 0.267-4.097 0.4-6.13 0.4-2.033 0-3.333-0.117-3.9-0.35-0.567-0.233-0.85-0.6-0.85-1.1v0-30.65c0-0.867 0.943-1.633 2.83-2.3 1.88-0.667 4.053-1 6.52-1v0c2.033 0 3.35 0.4 3.95 1.2v0c0.433 0.567 0.65 1.083 0.65 1.55v0 8.25h0.4c0-0.167 0.5-1.55 1.5-4.15v0c1.9-4.9 3.283-7.35 4.15-7.35v0c1.633 0 3.933 0.483 6.9 1.45v0c1.433 0.467 2.667 1.143 3.7 2.03 1.033 0.88 1.55 1.853 1.55 2.92v0c0 0.667-0.673 1.957-2.02 3.87-1.353 1.92-3.397 4.48-6.13 7.68v0c0.633 0.667 1.433 1.517 2.4 2.55 0.967 1.033 2.26 2.573 3.88 4.62 1.613 2.053 2.42 3.513 2.42 4.38 0 0.867-0.783 1.873-2.35 3.02-1.567 1.153-3.233 2.087-5 2.8-1.767 0.72-3.083 1.08-3.95 1.08v0c-0.567 0-1.34-0.86-2.32-2.58-0.987-1.713-2.18-4.287-3.58-7.72v0l-1.55 1.85zM159.8-1.2c0 0.367-1.017 0.657-3.05 0.87-2.033 0.22-4.073 0.33-6.12 0.33-2.053 0-3.363-0.093-3.93-0.28-0.567-0.18-0.85-0.487-0.85-0.92v0-31.1c0-0.733 0.967-1.46 2.9-2.18 1.933-0.713 4.1-1.07 6.5-1.07v0c2.133 0 3.533 0.45 4.2 1.35v0c0.233 0.333 0.35 0.667 0.35 1v0zM177.75-1.45c0 0.433-1.023 0.783-3.07 1.05-2.053 0.267-4.097 0.4-6.13 0.4-2.033 0-3.333-0.117-3.9-0.35-0.567-0.233-0.85-0.6-0.85-1.1v0-30.7c0-0.833 0.96-1.6 2.88-2.3 1.913-0.7 4.087-1.05 6.52-1.05v0c0.867 0 1.517 0.033 1.95 0.1v0c1.133 0.167 1.933 0.883 2.4 2.15v0l4.8 12.9h0.2v-11.8c0-0.833 0.95-1.6 2.85-2.3 1.9-0.7 4.067-1.05 6.5-1.05v0c2.1 0 3.433 0.4 4 1.2v0c0.4 0.567 0.6 1.083 0.6 1.55v0 31.3c0 0.433-1.023 0.783-3.07 1.05-2.053 0.267-4.303 0.4-6.75 0.4-2.453 0-3.797-0.317-4.03-0.95v0l-4.65-12.3h-0.25zM211.35 0.4v0c-1.133 0-2.183-0.117-3.15-0.35-0.967-0.233-1.973-0.727-3.02-1.48-1.053-0.747-1.947-1.737-2.68-2.97v0c-1.667-2.8-2.5-7.017-2.5-12.65v0c0-3.1 0.417-5.833 1.25-8.2 0.833-2.367 1.883-4.21 3.15-5.53 1.267-1.313 2.783-2.387 4.55-3.22 1.767-0.833 3.417-1.377 4.95-1.63 1.533-0.247 3.167-0.37 4.9-0.37v0c4 0 6.817 0.34 8.45 1.02 1.633 0.687 2.45 1.997 2.45 3.93v0c0 1.533-0.283 3.19-0.85 4.97-0.567 1.787-1.4 2.68-2.5 2.68v0c-0.267 0-1.4-0.26-3.4-0.78-2-0.513-3.5-0.77-4.5-0.77v0c-2.867 0-4.3 2.417-4.3 7.25v0c0 2.433 0.333 4.24 1 5.42 0.667 1.187 1.5 1.847 2.5 1.98v0-4.5c0-0.833 0.85-1.6 2.55-2.3 1.7-0.7 3.333-1.05 4.9-1.05 1.567 0 2.71 0.1 3.43 0.3 0.713 0.2 1.203 0.483 1.47 0.85v0c0.467 0.6 0.7 1.133 0.7 1.6v0 13.85c0 0.433-0.877 0.783-2.63 1.05-1.747 0.267-3.56 0.4-5.44 0.4-1.887 0-3.08-0.093-3.58-0.28-0.5-0.18-0.783-0.687-0.85-1.52v0l-0.35-2.95h-0.4c-0.233 1.433-0.823 2.667-1.77 3.7-0.953 1.033-2.397 1.55-4.33 1.55z" fill="#ffffff" fill-rule="nonzero" stroke="none" stroke-width="1" stroke-linecap="butt" stroke-linejoin="miter" stroke-miterlimit="10" stroke-dasharray="" stroke-dashoffset="0" font-family="none" font-weight="none" font-size="none" text-anchor="none" style="mix-blend-mode: normal" data-fill-palette-color="primary" opacity="1"></path><path xmlns="http://www.w3.org/2000/svg" d="M16 27.75v10.25c0 0.433-1.017 0.783-3.05 1.05-2.033 0.267-4.073 0.4-6.12 0.4-2.053 0-3.37-0.117-3.95-0.35-0.587-0.233-0.88-0.6-0.88-1.1v0-32.15c0-0.867 1.093-1.483 3.28-1.85 2.18-0.367 4.937-0.55 8.27-0.55 3.333 0 5.493 0.007 6.48 0.02 0.98 0.02 2.137 0.08 3.47 0.18 1.333 0.1 2.393 0.267 3.18 0.5 0.78 0.233 1.647 0.533 2.6 0.9 0.947 0.367 1.687 0.84 2.22 1.42 0.533 0.587 1.05 1.28 1.55 2.08v0c0.9 1.433 1.35 3.473 1.35 6.12 0 2.653-0.44 4.89-1.32 6.71-0.887 1.813-2.063 3.187-3.53 4.12v0c3.833 6.033 5.75 9.867 5.75 11.5 0 1.633-3.283 2.45-9.85 2.45v0c-1.9 0-3.217-0.083-3.95-0.25-0.733-0.167-1.2-0.533-1.4-1.1v0l-3.25-10.3zM16 11.35v8.7h1.3c1.933 0 2.9-1.5 2.9-4.5v0c0-1.533-0.257-2.617-0.77-3.25-0.52-0.633-1.113-0.95-1.78-0.95v0zM64.9 14.1v0c0 0.6-0.883 1.983-2.65 4.15-1.767 2.167-4.417 5.1-7.95 8.8v0h10.55c0.367 0 0.677 0.49 0.93 1.47 0.247 0.987 0.37 2.37 0.37 4.15 0 1.787-0.207 3.363-0.62 4.73-0.42 1.367-0.98 2.05-1.68 2.05v0h-24.35c-0.967 0-1.657-0.967-2.07-2.9-0.42-1.933-0.63-4.033-0.63-6.3v0c0-0.5 0.933-1.867 2.8-4.1 1.867-2.233 4.683-5.35 8.45-9.35v0h-9.7c-0.9 0-1.35-1.45-1.35-4.35v0c0-2.033 0.217-3.957 0.65-5.77 0.433-1.82 0.983-2.73 1.65-2.73v0h23.05c1.7 0 2.55 3.383 2.55 10.15z" fill="#ffffff" fill-rule="nonzero" stroke="none" stroke-width="1" stroke-linecap="butt" stroke-linejoin="miter" stroke-miterlimit="10" stroke-dasharray="" stroke-dashoffset="0" font-family="none" font-weight="none" font-size="none" text-anchor="none" style="mix-blend-mode: normal" data-fill-palette-color="primary" opacity="1"></path></g></svg></g></svg></g><g transform="matrix(1,0,0,1,0,151.00334124565444)"><svg viewBox="0 0 232.20979200000002 30.648379205707496" height="30.648379205707496" width="232.20979200000002"><g transform="matrix(1,0,0,1,0,0)"><svg width="232.20979200000002" viewBox="1.5 -37.79999923706055 378.4100036621094 49.94999694824219" height="30.648379205707496" data-palette-color="#000000"><path d="M12.25 0.5L12.25 0.5Q9.2 0.5 6.75-0.68 4.3-1.85 2.9-4.55 1.5-7.25 1.5-11.8L1.5-11.8Q1.5-16.45 3.08-19.13 4.65-21.8 7.33-22.95 10-24.1 13.25-24.1L13.25-24.1Q15.55-24.1 16.68-23.93 17.8-23.75 18.6-23.55L18.6-23.55 22.5-19.15 19.5-15.2 14.25-18.6Q11.75-18.6 10.35-16.85 8.95-15.1 8.95-11.8L8.95-11.8Q8.95-8.3 10.45-6.65 11.95-5 14.75-5L14.75-5Q16.6-5 18.07-5.43 19.55-5.85 20.55-6.38 21.55-6.9 21.95-7.15L21.95-7.15 21.95-1.45Q20.7-0.8 18.32-0.15 15.95 0.5 12.25 0.5ZM37.8 0.5L37.8 0.5Q31.7 0.5 28.85-2.7 26-5.9 26-11.8L26-11.8Q26-17.75 28.85-20.93 31.7-24.1 37.8-24.1L37.8-24.1Q44.1-24.1 46.82-20.93 49.55-17.75 49.55-11.8L49.55-11.8Q49.55-5.9 46.82-2.7 44.1 0.5 37.8 0.5ZM37.8-4.5L37.8-4.5Q39.85-4.5 41.17-6.1 42.5-7.7 42.5-11.8L42.5-11.8Q42.5-15.9 41.17-17.5 39.85-19.1 37.8-19.1L37.8-19.1Q35.7-19.1 34.37-17.5 33.05-15.9 33.05-11.8L33.05-11.8Q33.05-7.7 34.4-6.1 35.75-4.5 37.8-4.5ZM64.34 0.5L64.34 0.5Q58.25 0.5 55.4-2.7 52.55-5.9 52.55-11.8L52.55-11.8Q52.55-17.75 55.4-20.93 58.25-24.1 64.34-24.1L64.34-24.1Q70.65-24.1 73.37-20.93 76.09-17.75 76.09-11.8L76.09-11.8Q76.09-5.9 73.37-2.7 70.65 0.5 64.34 0.5ZM64.34-4.5L64.34-4.5Q66.4-4.5 67.72-6.1 69.05-7.7 69.05-11.8L69.05-11.8Q69.05-15.9 67.72-17.5 66.4-19.1 64.34-19.1L64.34-19.1Q62.25-19.1 60.92-17.5 59.59-15.9 59.59-11.8L59.59-11.8Q59.59-7.7 60.95-6.1 62.3-4.5 64.34-4.5ZM87.64 0L80.64 0 80.64-27.4 79.59-32.4 80.64-35.4 87.64-35.4 87.64-27.4 87.09-13.95 90.14-13.95 93.99-23.6 102.14-23.6 102.14-20.6 96.59-12.5 100.29-8 104.99-2.95 104.99 0 97.34 0 91.69-9.25 87.64-8.75 87.64 0ZM117.29-31.45L111.99-26.1 106.64-31.45 111.99-36.8 117.29-31.45ZM115.44 0L108.49 0 108.49-16.55 107.44-20.55 108.44-23.6 115.44-23.6 115.44 0ZM127.99 0L120.99 0 120.99-15.05 119.99-20.55 121.54-23.6 126.99-23.6 126.99-21.45 127.44-21.15Q127.99-21.65 128.96-22.33 129.94-23 131.34-23.55 132.74-24.1 134.49-24.1L134.49-24.1Q138.99-24.1 141.24-21.55 143.49-19 143.49-14.4L143.49-14.4 143.49-8.05 144.54-3.05 143.49 0 136.49 0 136.49-14.6Q136.49-16.5 135.66-17.53 134.84-18.55 133.09-18.55L133.09-18.55 127.99-17.6 127.99 0ZM159.39 12.15L159.39 12.15Q158.14 12.15 156.53 12.08 154.94 12 153.94 11.9L153.94 11.9 148.34 8.95 150.34 4 158.19 6.55Q164.84 6.55 164.84 0.5L164.84 0.5 164.84-1.5 164.34-1.75Q163.74-1.25 162.16-0.43 160.59 0.4 157.34 0.4L157.34 0.4Q154.99 0.4 152.78-0.78 150.59-1.95 149.21-4.55 147.84-7.15 147.84-11.3L147.84-11.3Q147.84-15.95 149.24-18.78 150.64-21.6 152.81-22.9 154.99-24.2 157.34-24.2L157.34-24.2Q159.94-24.2 161.61-23.45 163.28-22.7 163.84-22L163.84-22 163.84-23.65 170.89-23.65 171.39-20.65 170.84-17.65 170.89-0.05Q170.89 5.75 168.19 8.95 165.49 12.15 159.39 12.15ZM160.09-5.1L160.09-5.1Q160.99-5.1 162.09-5.35 163.19-5.6 163.84-5.8L163.84-5.8 163.84-18.2Q163.34-18.35 162.44-18.5 161.53-18.65 160.59-18.65L160.59-18.65Q158.44-18.65 157.28-17.73 156.14-16.8 155.74-15.25 155.34-13.7 155.34-11.85L155.34-11.85Q155.34-10 155.71-8.47 156.09-6.95 157.14-6.03 158.19-5.1 160.09-5.1ZM197.18-31.45L191.88-26.1 186.53-31.45 191.88-36.8 197.18-31.45ZM195.33 0L188.38 0 188.38-16.55 187.33-20.55 188.33-23.6 195.33-23.6 195.33 0ZM208.58 0.5L208.58 0.5Q205.38 0.5 203.25-0.05 201.13-0.6 199.83-1.3L199.83-1.3 199.83-7.2Q201.63-6.25 203.95-5.58 206.28-4.9 208.43-4.9L208.43-4.9Q210.98-4.9 210.98-6.55L210.98-6.55Q210.98-7.45 210.25-7.9 209.53-8.35 208.25-8.72 206.98-9.1 205.33-9.65L205.33-9.65Q202.48-10.65 200.93-12.2 199.38-13.75 199.38-17.05L199.38-17.05Q199.38-20.6 201.85-22.35 204.33-24.1 208.38-24.1L208.38-24.1Q210.03-24.1 211.18-23.93 212.33-23.75 213.28-23.6L213.28-23.6 217.83-21.1 215.88-16.25 208.38-18.65Q207.43-18.65 206.85-18.28 206.28-17.9 206.28-17.25L206.28-17.25Q206.28-16.2 207.33-15.68 208.38-15.15 210.38-14.55L210.38-14.55Q214.43-13.35 216.33-11.65 218.23-9.95 218.23-6.65L218.23-6.65Q218.23-3.6 215.85-1.55 213.48 0.5 208.58 0.5ZM234.72-15.05L233.72-20.55 235.27-23.6 240.72-23.6 240.72-21.45 241.17-21.15Q241.72-21.65 242.7-22.33 243.67-23 245.07-23.55 246.47-24.1 248.22-24.1L248.22-24.1Q253.42-24.1 255.67-20.65L255.67-20.65Q256.52-21.9 258.35-23.03 260.17-24.15 263.42-24.15L263.42-24.15Q267.92-24.15 270.17-21.6 272.42-19.05 272.42-14.45L272.42-14.45 272.42-8.05 273.47-3.05 272.42 0 265.47 0 265.47-14.65Q265.47-16.55 264.45-17.57 263.42-18.6 261.52-18.6L261.52-18.6Q259.57-18.6 258.4-17.5 257.22-16.4 257.22-14.6L257.22-14.6 257.22-14.6 257.22-14.4 257.22 0 250.22 0 250.22-14.6Q250.22-16.5 249.4-17.53 248.57-18.55 246.82-18.55L246.82-18.55 241.72-17.6 241.72 0 234.72 0 234.72-15.05ZM280.32 12.15L280.32 12.15 273.27 9.65 275.27 3.7 282.27 5.7Q283.72 5.7 284.72 4.83 285.72 3.95 286.4 2.63 287.07 1.3 287.37-0.05L287.37-0.05 282.72-0.05 277.22-17.15 276.27-23.65 283.77-23.65 287.52-5.65 288.52-5.65 292.27-23.65 299.77-23.65Q299.77-23.65 299.45-22.08 299.12-20.5 298.55-17.9 297.97-15.3 297.2-12.18 296.42-9.05 295.57-5.88 294.72-2.7 293.82-0.05L293.82-0.05Q292.47 4.1 290.85 6.8 289.22 9.5 286.77 10.83 284.32 12.15 280.32 12.15ZM322.62 0L315.62 0 315.62-27.4 314.57-32.4 315.62-35.4 322.62-35.4 322.62 0ZM337.26-31.45L331.96-26.1 326.61-31.45 331.96-36.8 337.26-31.45ZM335.41 0L328.46 0 328.46-16.55 327.41-20.55 328.41-23.6 335.41-23.6 335.41 0ZM348.61 0L341.61 0 341.61-17.7 338.96-21.2 341.61-23.6Q341.36-24.45 341.24-25.88 341.11-27.3 341.11-28.2L341.11-28.2Q341.11-32.45 343.04-35.13 344.96-37.8 349.41-37.8L349.41-37.8Q350.81-37.8 352.39-37.68 353.96-37.55 355.11-37.25L355.11-37.25 359.96-34.2 357.61-29.25 350.86-32.25Q349.16-32.25 348.36-30.98 347.56-29.7 347.56-27.8L347.56-27.8Q347.56-26.55 347.91-25.28 348.26-24 348.61-23.6L348.61-23.6 356.61-23.6 356.61-19.1 348.61-19.1 348.61-8.1 349.11-3.05 348.61 0ZM369.21 0.5L369.21 0.5Q365.96 0.5 363.41-0.65 360.86-1.8 359.41-4.5 357.96-7.2 357.96-11.8L357.96-11.8Q357.96-16.25 359.51-18.95 361.06-21.65 363.61-22.88 366.16-24.1 369.21-24.1L369.21-24.1Q372.56-24.1 374.48-23.35 376.41-22.6 377.41-21.9L377.41-21.9 379.91-13.95 378.91-10.85 364.91-10.85Q365.21-8.2 366.81-6.6 368.41-5 371.71-5L371.71-5Q374.41-5 376.08-5.65 377.76-6.3 378.41-6.65L378.41-6.65 378.41-1.45Q376.91-0.65 374.58-0.08 372.26 0.5 369.21 0.5ZM364.86-14.05L364.86-14.05 372.36-15.05 371.61-18.75Q371.26-18.95 370.63-19.05 370.01-19.15 369.51-19.15L369.51-19.15Q367.26-19.15 366.06-17.57 364.86-16 364.86-14.05Z" opacity="1" transform="matrix(1,0,0,1,0,0)" fill="#ffffff" class="slogan-text-1" data-fill-palette-color="secondary" id="text-1"></path></svg></g></svg></g></svg></g></svg></g><g transform="matrix(1,0,0,1,0,0.4541293011283756)"><svg viewBox="0 0 208.74009721519957 181.65172045136197" height="181.65172045136197" width="208.74009721519957"><g><svg xmlns="http://www.w3.org/2000/svg" xmlns:xlink="http://www.w3.org/1999/xlink" version="1.1" x="0" y="0" viewBox="0 3.115000009536743 48 41.770999908447266" enable-background="new 0 0 48 48" xml:space="preserve" height="181.65172045136197" width="208.74009721519957" class="icon-icon-0" data-fill-palette-color="accent" id="icon-0"><g fill="#000000" data-fill-palette-color="accent"><path d="M36.918 36.396H11.082c-3.547 0-6.433-2.55-6.433-5.685v-8.363H1c-0.552 0-1-0.448-1-1v-2.652c0-0.552 0.448-1 1-1h31.517L7.478 9.734C7.065 9.603 6.784 9.22 6.781 8.787s0.275-0.819 0.687-0.955l5.366-1.771c0.2-0.065 0.416-0.066 0.616-0.003l1.785 0.567c1.375-1.134 3.58-1.751 6.303-1.751 1.101 0 2.239 0.1 3.401 0.298 0.025-0.177 0.074-0.351 0.147-0.52 0.404-0.946 1.474-1.537 2.787-1.537 0.465 0 0.932 0.074 1.387 0.218 1.051 0.333 1.868 0.992 2.243 1.809 0.268 0.583 0.284 1.212 0.046 1.77-0.051 0.118-0.112 0.231-0.183 0.338 3.535 1.751 5.822 4.14 6.17 6.468l1.691 0.539c0.225 0.071 0.416 0.22 0.542 0.419l1.907 3.021L47 17.698c0.553 0 1 0.448 1 1v2.652c0 0.552-0.447 1-1 1h-3.648v8.362C43.352 33.847 40.466 36.396 36.918 36.396zM2 20.349h3.649c0.552 0 1 0.448 1 1v9.363c0 2.031 1.989 3.685 4.433 3.685h25.836c2.444 0 4.434-1.653 4.434-3.685V21.35c0-0.552 0.447-1 1-1H46v-0.652h-4.875c-0.344 0-0.663-0.176-0.846-0.466l-0.318-0.505c-0.002 0.041-0.006 0.082-0.012 0.124-0.076 0.487-0.495 0.847-0.988 0.847H2V20.349zM11.026 8.764l28.238 8.98c0.035 0.011 0.068 0.024 0.101 0.038l-1.092-1.73-1.996-0.635c-0.43-0.137-0.715-0.545-0.695-0.997 0.073-1.687-2.204-4.318-6.696-6.082-0.419-0.165-0.677-0.589-0.629-1.037 0.047-0.447 0.389-0.808 0.833-0.881 0.388-0.063 0.586-0.215 0.621-0.295 0.014-0.032 0.005-0.083-0.025-0.149-0.102-0.221-0.432-0.547-1.029-0.736-0.257-0.082-0.526-0.125-0.782-0.125-0.553 0-0.894 0.195-0.949 0.326-0.021 0.05 0.023 0.195 0.188 0.371C27.414 6.135 27.468 6.619 27.243 7c-0.224 0.381-0.671 0.572-1.103 0.464-1.565-0.387-3.157-0.592-4.603-0.592-2.429 0-4.414 0.583-5.311 1.559-0.264 0.286-0.667 0.395-1.039 0.276l-2.035-0.646L11.026 8.764z" fill="#ffffff" data-fill-palette-color="accent"></path><path d="M23.919 19.557c-0.463 0-0.878-0.323-0.978-0.793-0.267-1.264-1.505-2.182-2.943-2.182-1.439 0-2.678 0.918-2.945 2.182-0.115 0.541-0.647 0.882-1.186 0.771-0.541-0.115-0.886-0.646-0.771-1.186 0.462-2.184 2.524-3.768 4.902-3.768 2.378 0 4.439 1.585 4.9 3.769 0.114 0.54-0.231 1.071-0.772 1.185C24.057 19.55 23.987 19.557 23.919 19.557z" fill="#ffffff" data-fill-palette-color="accent"></path><g fill="#000000" data-fill-palette-color="accent"><path d="M13.992 42.412c-0.552 0-1-0.447-1-1v-2.414c0-0.553 0.448-1 1-1s1 0.447 1 1v2.414C14.992 41.965 14.544 42.412 13.992 42.412z" fill="#ffffff" data-fill-palette-color="accent"></path><path d="M17.995 42.412c-0.552 0-1-0.447-1-1v-3.276c0-0.553 0.448-1 1-1s1 0.447 1 1v3.276C18.995 41.965 18.547 42.412 17.995 42.412z" fill="#ffffff" data-fill-palette-color="accent"></path><path d="M21.999 42.412c-0.552 0-1-0.447-1-1v-2.414c0-0.553 0.448-1 1-1s1 0.447 1 1v2.414C22.999 41.965 22.551 42.412 21.999 42.412z" fill="#ffffff" data-fill-palette-color="accent"></path><path d="M26.002 42.412c-0.553 0-1-0.447-1-1v-3.276c0-0.553 0.447-1 1-1s1 0.447 1 1v3.276C27.002 41.965 26.555 42.412 26.002 42.412z" fill="#ffffff" data-fill-palette-color="accent"></path><path d="M30.006 42.412c-0.553 0-1-0.447-1-1v-2.414c0-0.553 0.447-1 1-1s1 0.447 1 1v2.414C31.006 41.965 30.559 42.412 30.006 42.412z" fill="#ffffff" data-fill-palette-color="accent"></path><path d="M34.008 42.412c-0.553 0-1-0.447-1-1v-3.276c0-0.553 0.447-1 1-1s1 0.447 1 1v3.276C35.008 41.965 34.561 42.412 34.008 42.412z" fill="#ffffff" data-fill-palette-color="accent"></path></g><path d="M41.549 44.886H6.451c-0.552 0-1-0.447-1-1s0.448-1 1-1h35.098c0.553 0 1 0.447 1 1S42.102 44.886 41.549 44.886z" fill="#ffffff" data-fill-palette-color="accent"></path></g></svg></g></svg></g></svg></g><defs></defs></svg><rect width="395.52" height="112.88717053080111" fill="none" stroke="none" visibility="hidden"></rect></g></svg></g></svg>